# xmcd
# 
# Track frame offsets:
#     182
#     13890
#     24905
#     37152
#     48915
#     63207
#     76372
#     89135
#     102072
#     112462
#     124000
#     135942
#     149840
#     161340
#     177432
#     192505
# 
# Disc length: 2736
# 
# Revision: 2
# Processed by: cddbd v1.5.2PL0 Copyright (c) Steve Scherf et al.
# Submitted via: fre:ac v1.0.27
# 
DISCID=e30aae10
DTITLE=Ray Charles - Blues In A Sentimental Key
DYEAR=1998
DGENRE=Blues
TTITLE0=Baby Let Me Hold Your hand
TTITLE1=A Sentimental Blues
TTITLE2=Money Honey
TTITLE3=C C Rider
TTITLE4=Someday
TTITLE5=Baby Won't You Please Come Home
TTITLE6=Blues Before Sunrise
TTITLE7=Don't Put All Your Dreams In One basket
TTITLE8=Ain't That Fine
TTITLE9=Guitar Blues
TTITLE10=Can't See You darling
TTITLE11=Misery In My Heart
TTITLE12=Let's All Have A Ball
TTITLE13=Let me Hear You Call My Name
TTITLE14=I'm Wondering And Wondering
TTITLE15=Lonely Boy
EXTD=YEAR: 1998
EXTT0=
EXTT1=
EXTT2=
EXTT3=
EXTT4=
EXTT5=
EXTT6=
EXTT7=
EXTT8=
EXTT9=
EXTT10=
EXTT11=
EXTT12=
EXTT13=
EXTT14=
EXTT15=
PLAYORDER=
